<mxfile host="Electron" agent="Mozilla/5.0 (Windows NT 10.0; Win64; x64) AppleWebKit/537.36 (KHTML, like Gecko) draw.io/24.7.8 Chrome/128.0.6613.36 Electron/32.0.1 Safari/537.36" version="24.7.8">
  <diagram name="WebSite bán bánh kem" id="3-v-KpDXdmkLg8cR2m0m">
    <mxGraphModel dx="1290" dy="1721" grid="1" gridSize="10" guides="1" tooltips="1" connect="1" arrows="1" fold="1" page="1" pageScale="1" pageWidth="850" pageHeight="1100" math="0" shadow="0">
      <root>
        <mxCell id="0" />
        <mxCell id="1" parent="0" />
        <mxCell id="mqlpiFvzertqPi0XspZL-1" value="Khách vãng lai" style="shape=umlActor;verticalLabelPosition=bottom;verticalAlign=top;html=1;outlineConnect=0;" parent="1" vertex="1">
          <mxGeometry x="220" y="240" width="30" height="60" as="geometry" />
        </mxCell>
        <mxCell id="mqlpiFvzertqPi0XspZL-2" value="Thành viên" style="shape=umlActor;verticalLabelPosition=bottom;verticalAlign=top;html=1;outlineConnect=0;" parent="1" vertex="1">
          <mxGeometry x="470" y="240" width="30" height="60" as="geometry" />
        </mxCell>
        <mxCell id="mqlpiFvzertqPi0XspZL-5" value="Quản lí giỏ hàng" style="ellipse;whiteSpace=wrap;html=1;" parent="1" vertex="1">
          <mxGeometry x="270" y="160" width="90" height="50" as="geometry" />
        </mxCell>
        <mxCell id="mqlpiFvzertqPi0XspZL-6" value="Cập nhật giở hàng" style="ellipse;whiteSpace=wrap;html=1;" parent="1" vertex="1">
          <mxGeometry x="350" y="50" width="90" height="50" as="geometry" />
        </mxCell>
        <mxCell id="mqlpiFvzertqPi0XspZL-7" value="Xóa giỏ hàng" style="ellipse;whiteSpace=wrap;html=1;" parent="1" vertex="1">
          <mxGeometry x="200" y="60" width="90" height="50" as="geometry" />
        </mxCell>
        <mxCell id="mqlpiFvzertqPi0XspZL-8" value="Đăng ký thành viên" style="ellipse;whiteSpace=wrap;html=1;" parent="1" vertex="1">
          <mxGeometry x="40" y="120" width="90" height="50" as="geometry" />
        </mxCell>
        <mxCell id="mqlpiFvzertqPi0XspZL-9" value="Xem thông tin sản phẩm" style="ellipse;whiteSpace=wrap;html=1;" parent="1" vertex="1">
          <mxGeometry x="40" y="200" width="90" height="50" as="geometry" />
        </mxCell>
        <mxCell id="mqlpiFvzertqPi0XspZL-10" value="Thêm vào giỏ hàng" style="ellipse;whiteSpace=wrap;html=1;" parent="1" vertex="1">
          <mxGeometry x="40" y="310" width="90" height="50" as="geometry" />
        </mxCell>
        <mxCell id="mqlpiFvzertqPi0XspZL-11" value="" style="endArrow=none;html=1;rounded=0;entryX=1;entryY=1;entryDx=0;entryDy=0;exitX=0.5;exitY=0;exitDx=0;exitDy=0;exitPerimeter=0;" parent="1" source="mqlpiFvzertqPi0XspZL-1" target="mqlpiFvzertqPi0XspZL-8" edge="1">
          <mxGeometry width="50" height="50" relative="1" as="geometry">
            <mxPoint x="228" y="230" as="sourcePoint" />
            <mxPoint x="520" y="230" as="targetPoint" />
          </mxGeometry>
        </mxCell>
        <mxCell id="mqlpiFvzertqPi0XspZL-12" value="Cập nhật thông tin cá nhân" style="ellipse;whiteSpace=wrap;html=1;" parent="1" vertex="1">
          <mxGeometry x="340" y="350" width="100" height="50" as="geometry" />
        </mxCell>
        <mxCell id="mqlpiFvzertqPi0XspZL-14" value="" style="endArrow=none;html=1;rounded=0;exitX=0.5;exitY=0;exitDx=0;exitDy=0;exitPerimeter=0;" parent="1" source="mqlpiFvzertqPi0XspZL-1" target="mqlpiFvzertqPi0XspZL-9" edge="1">
          <mxGeometry width="50" height="50" relative="1" as="geometry">
            <mxPoint x="228" y="230" as="sourcePoint" />
            <mxPoint x="-1" y="97" as="targetPoint" />
          </mxGeometry>
        </mxCell>
        <mxCell id="mqlpiFvzertqPi0XspZL-15" value="&amp;lt;&amp;lt;extend&amp;gt;&amp;gt;" style="html=1;verticalAlign=bottom;labelBackgroundColor=none;endArrow=open;endFill=0;dashed=1;rounded=0;entryX=0.5;entryY=1;entryDx=0;entryDy=0;exitX=0.5;exitY=0;exitDx=0;exitDy=0;" parent="1" source="mqlpiFvzertqPi0XspZL-10" target="mqlpiFvzertqPi0XspZL-9" edge="1">
          <mxGeometry x="-0.3333" width="160" relative="1" as="geometry">
            <mxPoint x="85" y="300" as="sourcePoint" />
            <mxPoint x="350" y="350" as="targetPoint" />
            <mxPoint as="offset" />
          </mxGeometry>
        </mxCell>
        <mxCell id="mqlpiFvzertqPi0XspZL-16" value="&amp;lt;&amp;lt;extend&amp;gt;&amp;gt;" style="html=1;verticalAlign=bottom;labelBackgroundColor=none;endArrow=open;endFill=0;dashed=1;rounded=0;entryX=0;entryY=0;entryDx=0;entryDy=0;exitX=0.5;exitY=1;exitDx=0;exitDy=0;" parent="1" source="mqlpiFvzertqPi0XspZL-7" target="mqlpiFvzertqPi0XspZL-5" edge="1">
          <mxGeometry x="0.043" width="160" relative="1" as="geometry">
            <mxPoint x="244.58" y="190" as="sourcePoint" />
            <mxPoint x="244.58" y="130" as="targetPoint" />
            <mxPoint as="offset" />
          </mxGeometry>
        </mxCell>
        <mxCell id="mqlpiFvzertqPi0XspZL-17" value="&amp;lt;&amp;lt;extend&amp;gt;&amp;gt;" style="html=1;verticalAlign=bottom;labelBackgroundColor=none;endArrow=open;endFill=0;dashed=1;rounded=0;exitX=0.411;exitY=1.03;exitDx=0;exitDy=0;exitPerimeter=0;" parent="1" source="mqlpiFvzertqPi0XspZL-6" target="mqlpiFvzertqPi0XspZL-5" edge="1">
          <mxGeometry x="-0.3333" width="160" relative="1" as="geometry">
            <mxPoint x="400" y="180" as="sourcePoint" />
            <mxPoint x="400" y="120" as="targetPoint" />
            <mxPoint as="offset" />
          </mxGeometry>
        </mxCell>
        <mxCell id="mqlpiFvzertqPi0XspZL-18" value="" style="endArrow=none;html=1;rounded=0;exitX=0;exitY=1;exitDx=0;exitDy=0;" parent="1" source="mqlpiFvzertqPi0XspZL-5" edge="1">
          <mxGeometry width="50" height="50" relative="1" as="geometry">
            <mxPoint x="320" y="290" as="sourcePoint" />
            <mxPoint x="235" y="240" as="targetPoint" />
          </mxGeometry>
        </mxCell>
        <mxCell id="mqlpiFvzertqPi0XspZL-19" value="" style="endArrow=open;endFill=1;endSize=12;html=1;rounded=0;" parent="1" source="mqlpiFvzertqPi0XspZL-2" target="mqlpiFvzertqPi0XspZL-1" edge="1">
          <mxGeometry width="160" relative="1" as="geometry">
            <mxPoint x="480" y="270" as="sourcePoint" />
            <mxPoint x="640" y="270" as="targetPoint" />
          </mxGeometry>
        </mxCell>
        <mxCell id="mqlpiFvzertqPi0XspZL-21" value="Xóa tài khoản" style="ellipse;whiteSpace=wrap;html=1;" parent="1" vertex="1">
          <mxGeometry x="420" y="440" width="90" height="50" as="geometry" />
        </mxCell>
        <mxCell id="mqlpiFvzertqPi0XspZL-22" value="&amp;lt;&amp;lt;extend&amp;gt;&amp;gt;" style="html=1;verticalAlign=bottom;labelBackgroundColor=none;endArrow=open;endFill=0;dashed=1;rounded=0;entryX=0.67;entryY=0.99;entryDx=0;entryDy=0;exitX=0.439;exitY=-0.008;exitDx=0;exitDy=0;exitPerimeter=0;entryPerimeter=0;" parent="1" source="mqlpiFvzertqPi0XspZL-21" target="mqlpiFvzertqPi0XspZL-12" edge="1">
          <mxGeometry x="-0.329" width="160" relative="1" as="geometry">
            <mxPoint x="440" y="380" as="sourcePoint" />
            <mxPoint x="440" y="320" as="targetPoint" />
            <mxPoint as="offset" />
          </mxGeometry>
        </mxCell>
        <mxCell id="mqlpiFvzertqPi0XspZL-23" value="" style="endArrow=none;html=1;rounded=0;entryX=1;entryY=0;entryDx=0;entryDy=0;" parent="1" target="mqlpiFvzertqPi0XspZL-12" edge="1">
          <mxGeometry width="50" height="50" relative="1" as="geometry">
            <mxPoint x="470" y="270" as="sourcePoint" />
            <mxPoint x="321" y="265" as="targetPoint" />
          </mxGeometry>
        </mxCell>
        <mxCell id="mqlpiFvzertqPi0XspZL-24" value="Đăng nhập" style="ellipse;whiteSpace=wrap;html=1;" parent="1" vertex="1">
          <mxGeometry x="620" y="240" width="90" height="50" as="geometry" />
        </mxCell>
        <mxCell id="mqlpiFvzertqPi0XspZL-25" value="Đặt hàng" style="ellipse;whiteSpace=wrap;html=1;" parent="1" vertex="1">
          <mxGeometry x="490" y="70" width="90" height="50" as="geometry" />
        </mxCell>
        <mxCell id="mqlpiFvzertqPi0XspZL-26" value="Quên mật khẩu" style="ellipse;whiteSpace=wrap;html=1;" parent="1" vertex="1">
          <mxGeometry x="600" y="70" width="90" height="50" as="geometry" />
        </mxCell>
        <mxCell id="mqlpiFvzertqPi0XspZL-27" value="Đổi mật khẩu" style="ellipse;whiteSpace=wrap;html=1;" parent="1" vertex="1">
          <mxGeometry x="700" y="100" width="90" height="50" as="geometry" />
        </mxCell>
        <mxCell id="mqlpiFvzertqPi0XspZL-28" value="Lưu thông tin đăng nhập" style="ellipse;whiteSpace=wrap;html=1;" parent="1" vertex="1">
          <mxGeometry x="790" y="160" width="90" height="50" as="geometry" />
        </mxCell>
        <mxCell id="mqlpiFvzertqPi0XspZL-29" value="Đăng xuất" style="ellipse;whiteSpace=wrap;html=1;" parent="1" vertex="1">
          <mxGeometry x="800" y="270" width="90" height="50" as="geometry" />
        </mxCell>
        <mxCell id="mqlpiFvzertqPi0XspZL-30" value="Hủy đơn" style="ellipse;whiteSpace=wrap;html=1;" parent="1" vertex="1">
          <mxGeometry x="780" y="370" width="90" height="50" as="geometry" />
        </mxCell>
        <mxCell id="mqlpiFvzertqPi0XspZL-31" value="Chi tiết đơn hàng" style="ellipse;whiteSpace=wrap;html=1;" parent="1" vertex="1">
          <mxGeometry x="610" y="370" width="90" height="50" as="geometry" />
        </mxCell>
        <mxCell id="mqlpiFvzertqPi0XspZL-32" value="" style="endArrow=none;html=1;rounded=0;exitX=0;exitY=0;exitDx=0;exitDy=0;" parent="1" source="mqlpiFvzertqPi0XspZL-31" edge="1">
          <mxGeometry width="50" height="50" relative="1" as="geometry">
            <mxPoint x="630" y="310" as="sourcePoint" />
            <mxPoint x="500" y="270" as="targetPoint" />
          </mxGeometry>
        </mxCell>
        <mxCell id="mqlpiFvzertqPi0XspZL-33" value="&amp;lt;&amp;lt;extend&amp;gt;&amp;gt;" style="html=1;verticalAlign=bottom;labelBackgroundColor=none;endArrow=open;endFill=0;dashed=1;rounded=0;entryX=1;entryY=0.5;entryDx=0;entryDy=0;exitX=0;exitY=0.5;exitDx=0;exitDy=0;" parent="1" source="mqlpiFvzertqPi0XspZL-30" target="mqlpiFvzertqPi0XspZL-31" edge="1">
          <mxGeometry width="160" relative="1" as="geometry">
            <mxPoint x="710" y="480" as="sourcePoint" />
            <mxPoint x="670" y="437" as="targetPoint" />
            <mxPoint as="offset" />
          </mxGeometry>
        </mxCell>
        <mxCell id="mqlpiFvzertqPi0XspZL-35" value="&amp;lt;&amp;lt;include&amp;gt;&amp;gt;" style="html=1;verticalAlign=bottom;labelBackgroundColor=none;endArrow=open;endFill=0;dashed=1;rounded=0;exitX=0.5;exitY=0;exitDx=0;exitDy=0;entryX=0;entryY=1;entryDx=0;entryDy=0;" parent="1" source="mqlpiFvzertqPi0XspZL-31" target="mqlpiFvzertqPi0XspZL-24" edge="1">
          <mxGeometry width="160" relative="1" as="geometry">
            <mxPoint x="580" y="280" as="sourcePoint" />
            <mxPoint x="740" y="280" as="targetPoint" />
          </mxGeometry>
        </mxCell>
        <mxCell id="mqlpiFvzertqPi0XspZL-37" value="&amp;lt;&amp;lt;include&amp;gt;&amp;gt;" style="html=1;verticalAlign=bottom;labelBackgroundColor=none;endArrow=open;endFill=0;dashed=1;rounded=0;exitX=1;exitY=0.5;exitDx=0;exitDy=0;entryX=0;entryY=1;entryDx=0;entryDy=0;" parent="1" source="mqlpiFvzertqPi0XspZL-12" target="mqlpiFvzertqPi0XspZL-24" edge="1">
          <mxGeometry x="-0.3636" y="-2" width="160" relative="1" as="geometry">
            <mxPoint x="490" y="350" as="sourcePoint" />
            <mxPoint x="500" y="270" as="targetPoint" />
            <mxPoint as="offset" />
          </mxGeometry>
        </mxCell>
        <mxCell id="mqlpiFvzertqPi0XspZL-38" value="&amp;lt;&amp;lt;include&amp;gt;&amp;gt;" style="html=1;verticalAlign=bottom;labelBackgroundColor=none;endArrow=open;endFill=0;dashed=1;rounded=0;exitX=0.5;exitY=1;exitDx=0;exitDy=0;entryX=0.076;entryY=0.144;entryDx=0;entryDy=0;entryPerimeter=0;" parent="1" source="mqlpiFvzertqPi0XspZL-25" target="mqlpiFvzertqPi0XspZL-24" edge="1">
          <mxGeometry width="160" relative="1" as="geometry">
            <mxPoint x="550" y="140" as="sourcePoint" />
            <mxPoint x="560" y="60" as="targetPoint" />
          </mxGeometry>
        </mxCell>
        <mxCell id="mqlpiFvzertqPi0XspZL-39" value="&amp;lt;&amp;lt;extend&amp;gt;&amp;gt;" style="html=1;verticalAlign=bottom;labelBackgroundColor=none;endArrow=open;endFill=0;dashed=1;rounded=0;exitX=0.5;exitY=1;exitDx=0;exitDy=0;entryX=0.5;entryY=0;entryDx=0;entryDy=0;" parent="1" source="mqlpiFvzertqPi0XspZL-26" target="mqlpiFvzertqPi0XspZL-24" edge="1">
          <mxGeometry x="0.0135" y="5" width="160" relative="1" as="geometry">
            <mxPoint x="1020" y="100" as="sourcePoint" />
            <mxPoint x="730" y="180" as="targetPoint" />
            <mxPoint as="offset" />
          </mxGeometry>
        </mxCell>
        <mxCell id="mqlpiFvzertqPi0XspZL-40" value="&amp;lt;&amp;lt;extend&amp;gt;&amp;gt;" style="html=1;verticalAlign=bottom;labelBackgroundColor=none;endArrow=open;endFill=0;dashed=1;rounded=0;entryX=0.724;entryY=0.048;entryDx=0;entryDy=0;exitX=0.413;exitY=1.072;exitDx=0;exitDy=0;exitPerimeter=0;entryPerimeter=0;" parent="1" source="mqlpiFvzertqPi0XspZL-27" target="mqlpiFvzertqPi0XspZL-24" edge="1">
          <mxGeometry x="-0.3343" width="160" relative="1" as="geometry">
            <mxPoint x="730" y="180" as="sourcePoint" />
            <mxPoint x="665" y="137" as="targetPoint" />
            <mxPoint as="offset" />
          </mxGeometry>
        </mxCell>
        <mxCell id="mqlpiFvzertqPi0XspZL-41" value="&amp;lt;&amp;lt;extend&amp;gt;&amp;gt;" style="html=1;verticalAlign=bottom;labelBackgroundColor=none;endArrow=open;endFill=0;dashed=1;rounded=0;" parent="1" source="mqlpiFvzertqPi0XspZL-28" target="mqlpiFvzertqPi0XspZL-24" edge="1">
          <mxGeometry x="-0.3343" width="160" relative="1" as="geometry">
            <mxPoint x="770" y="220" as="sourcePoint" />
            <mxPoint x="705" y="177" as="targetPoint" />
            <mxPoint as="offset" />
          </mxGeometry>
        </mxCell>
        <mxCell id="mqlpiFvzertqPi0XspZL-42" value="&amp;lt;&amp;lt;extend&amp;gt;&amp;gt;" style="html=1;verticalAlign=bottom;labelBackgroundColor=none;endArrow=open;endFill=0;dashed=1;rounded=0;entryX=1;entryY=0.5;entryDx=0;entryDy=0;exitX=0;exitY=0.656;exitDx=0;exitDy=0;exitPerimeter=0;" parent="1" source="mqlpiFvzertqPi0XspZL-29" target="mqlpiFvzertqPi0XspZL-24" edge="1">
          <mxGeometry x="-0.1152" y="-2" width="160" relative="1" as="geometry">
            <mxPoint x="750" y="300" as="sourcePoint" />
            <mxPoint x="685" y="257" as="targetPoint" />
            <mxPoint as="offset" />
          </mxGeometry>
        </mxCell>
        <mxCell id="mqlpiFvzertqPi0XspZL-43" value="" style="ellipse;html=1;shape=endState;fillColor=#000000;strokeColor=#ff0000;" parent="1" vertex="1">
          <mxGeometry x="280" y="1280" width="40" height="40" as="geometry" />
        </mxCell>
        <mxCell id="mqlpiFvzertqPi0XspZL-44" value="" style="ellipse;html=1;shape=startState;fillColor=#000000;strokeColor=#ff0000;" parent="1" vertex="1">
          <mxGeometry x="280" y="680" width="40" height="40" as="geometry" />
        </mxCell>
        <mxCell id="mqlpiFvzertqPi0XspZL-45" value="" style="edgeStyle=orthogonalEdgeStyle;html=1;verticalAlign=bottom;endArrow=open;endSize=8;strokeColor=#ff0000;rounded=0;entryX=0.5;entryY=0;entryDx=0;entryDy=0;" parent="1" source="mqlpiFvzertqPi0XspZL-44" target="mqlpiFvzertqPi0XspZL-46" edge="1">
          <mxGeometry relative="1" as="geometry">
            <mxPoint x="295" y="710" as="targetPoint" />
            <Array as="points">
              <mxPoint x="300" y="680" />
              <mxPoint x="300" y="680" />
            </Array>
          </mxGeometry>
        </mxCell>
        <mxCell id="mqlpiFvzertqPi0XspZL-46" value="Chọn đăng ký tài khoản" style="rounded=1;whiteSpace=wrap;html=1;arcSize=40;fontColor=#000000;fillColor=#ffffc0;strokeColor=#ff0000;" parent="1" vertex="1">
          <mxGeometry x="240" y="760" width="120" height="40" as="geometry" />
        </mxCell>
        <mxCell id="mqlpiFvzertqPi0XspZL-48" value="" style="edgeStyle=orthogonalEdgeStyle;html=1;verticalAlign=bottom;endArrow=open;endSize=8;strokeColor=#ff0000;rounded=0;exitX=0.5;exitY=1;exitDx=0;exitDy=0;entryX=0.5;entryY=0;entryDx=0;entryDy=0;" parent="1" source="mqlpiFvzertqPi0XspZL-46" target="mqlpiFvzertqPi0XspZL-50" edge="1">
          <mxGeometry relative="1" as="geometry">
            <mxPoint x="300" y="840" as="targetPoint" />
            <mxPoint x="280" y="850" as="sourcePoint" />
          </mxGeometry>
        </mxCell>
        <mxCell id="mqlpiFvzertqPi0XspZL-50" value="Nhập thông tin" style="rounded=1;whiteSpace=wrap;html=1;arcSize=40;fontColor=#000000;fillColor=#ffffc0;strokeColor=#ff0000;" parent="1" vertex="1">
          <mxGeometry x="240" y="840" width="120" height="40" as="geometry" />
        </mxCell>
        <mxCell id="mqlpiFvzertqPi0XspZL-51" value="" style="edgeStyle=orthogonalEdgeStyle;html=1;verticalAlign=bottom;endArrow=open;endSize=8;strokeColor=#ff0000;rounded=0;exitX=0.5;exitY=1;exitDx=0;exitDy=0;entryX=0.5;entryY=0;entryDx=0;entryDy=0;" parent="1" source="mqlpiFvzertqPi0XspZL-50" target="mqlpiFvzertqPi0XspZL-52" edge="1">
          <mxGeometry relative="1" as="geometry">
            <mxPoint x="299.5" y="950" as="targetPoint" />
            <mxPoint x="299.5" y="900" as="sourcePoint" />
          </mxGeometry>
        </mxCell>
        <mxCell id="mqlpiFvzertqPi0XspZL-52" value="Chọn đăng nhập" style="rounded=1;whiteSpace=wrap;html=1;arcSize=40;fontColor=#000000;fillColor=#ffffc0;strokeColor=#ff0000;" parent="1" vertex="1">
          <mxGeometry x="240" y="920" width="120" height="40" as="geometry" />
        </mxCell>
        <mxCell id="mqlpiFvzertqPi0XspZL-53" value="Thông báo thông tin không hợp lệ" style="rounded=1;whiteSpace=wrap;html=1;arcSize=40;fontColor=#000000;fillColor=#ffffc0;strokeColor=#ff0000;" parent="1" vertex="1">
          <mxGeometry x="425" y="920" width="120" height="40" as="geometry" />
        </mxCell>
        <mxCell id="mqlpiFvzertqPi0XspZL-55" value="Kiểm tra thông tin có&amp;nbsp;&lt;div&gt;hợp lệ không&lt;/div&gt;" style="rhombus;whiteSpace=wrap;html=1;fontColor=#000000;fillColor=#ffffc0;strokeColor=#ff0000;" parent="1" vertex="1">
          <mxGeometry x="210" y="990" width="180" height="70" as="geometry" />
        </mxCell>
        <mxCell id="mqlpiFvzertqPi0XspZL-56" value="" style="edgeStyle=orthogonalEdgeStyle;html=1;align=left;verticalAlign=bottom;endArrow=open;endSize=8;strokeColor=#ff0000;rounded=0;entryX=0.5;entryY=1;entryDx=0;entryDy=0;" parent="1" source="mqlpiFvzertqPi0XspZL-55" target="mqlpiFvzertqPi0XspZL-53" edge="1">
          <mxGeometry x="0.6364" y="-55" relative="1" as="geometry">
            <mxPoint x="440" y="1030" as="targetPoint" />
            <mxPoint as="offset" />
          </mxGeometry>
        </mxCell>
        <mxCell id="mqlpiFvzertqPi0XspZL-93" value="thông tin không hợp lệ/ đã tồn tại" style="edgeLabel;html=1;align=center;verticalAlign=middle;resizable=0;points=[];" parent="mqlpiFvzertqPi0XspZL-56" vertex="1" connectable="0">
          <mxGeometry x="0.5394" y="-1" relative="1" as="geometry">
            <mxPoint x="-16" y="2" as="offset" />
          </mxGeometry>
        </mxCell>
        <mxCell id="mqlpiFvzertqPi0XspZL-57" value="thông tin hợp lệ" style="edgeStyle=orthogonalEdgeStyle;html=1;align=left;verticalAlign=top;endArrow=open;endSize=8;strokeColor=#ff0000;rounded=0;entryX=0.5;entryY=0;entryDx=0;entryDy=0;" parent="1" source="mqlpiFvzertqPi0XspZL-55" target="mqlpiFvzertqPi0XspZL-61" edge="1">
          <mxGeometry x="-0.6" y="-30" relative="1" as="geometry">
            <mxPoint x="300" y="1110" as="targetPoint" />
            <mxPoint as="offset" />
          </mxGeometry>
        </mxCell>
        <mxCell id="mqlpiFvzertqPi0XspZL-60" value="" style="edgeStyle=orthogonalEdgeStyle;html=1;align=left;verticalAlign=bottom;endArrow=open;endSize=8;strokeColor=#ff0000;rounded=0;exitX=0.5;exitY=0;exitDx=0;exitDy=0;entryX=1;entryY=0.5;entryDx=0;entryDy=0;" parent="1" source="mqlpiFvzertqPi0XspZL-53" target="mqlpiFvzertqPi0XspZL-50" edge="1">
          <mxGeometry x="-1" relative="1" as="geometry">
            <mxPoint x="400" y="850" as="targetPoint" />
            <mxPoint x="500" y="900" as="sourcePoint" />
            <Array as="points">
              <mxPoint x="480" y="920" />
              <mxPoint x="480" y="860" />
            </Array>
          </mxGeometry>
        </mxCell>
        <mxCell id="mqlpiFvzertqPi0XspZL-61" value="Thông báo thông&lt;div&gt;&amp;nbsp;tin hợp hệ&lt;/div&gt;" style="rhombus;whiteSpace=wrap;html=1;fontColor=#000000;fillColor=#ffffc0;strokeColor=#ff0000;" parent="1" vertex="1">
          <mxGeometry x="220" y="1110" width="160" height="60" as="geometry" />
        </mxCell>
        <mxCell id="mqlpiFvzertqPi0XspZL-65" value="" style="edgeStyle=orthogonalEdgeStyle;html=1;verticalAlign=bottom;endArrow=open;endSize=8;strokeColor=#ff0000;rounded=0;exitX=0.5;exitY=1;exitDx=0;exitDy=0;entryX=0.5;entryY=0;entryDx=0;entryDy=0;" parent="1" source="mqlpiFvzertqPi0XspZL-52" target="mqlpiFvzertqPi0XspZL-55" edge="1">
          <mxGeometry relative="1" as="geometry">
            <mxPoint x="299.5" y="1010" as="targetPoint" />
            <mxPoint x="299.5" y="970" as="sourcePoint" />
          </mxGeometry>
        </mxCell>
        <mxCell id="mqlpiFvzertqPi0XspZL-66" value="" style="edgeStyle=orthogonalEdgeStyle;html=1;verticalAlign=bottom;endArrow=open;endSize=8;strokeColor=#ff0000;rounded=0;exitX=0.5;exitY=1;exitDx=0;exitDy=0;entryX=0.5;entryY=0;entryDx=0;entryDy=0;" parent="1" source="mqlpiFvzertqPi0XspZL-61" target="mqlpiFvzertqPi0XspZL-90" edge="1">
          <mxGeometry relative="1" as="geometry">
            <mxPoint x="299.5" y="1210" as="targetPoint" />
            <mxPoint x="299.5" y="1160" as="sourcePoint" />
          </mxGeometry>
        </mxCell>
        <mxCell id="mqlpiFvzertqPi0XspZL-68" value="Chưa tồn tại" style="text;html=1;align=center;verticalAlign=middle;resizable=0;points=[];autosize=1;strokeColor=none;fillColor=none;" parent="1" vertex="1">
          <mxGeometry x="290" y="1170" width="90" height="30" as="geometry" />
        </mxCell>
        <mxCell id="mqlpiFvzertqPi0XspZL-69" value="Đăng ký" style="whiteSpace=wrap;html=1;" parent="1" vertex="1">
          <mxGeometry x="240" y="590" width="120" height="60" as="geometry" />
        </mxCell>
        <mxCell id="mqlpiFvzertqPi0XspZL-70" value="Đăng nhập" style="whiteSpace=wrap;html=1;" parent="1" vertex="1">
          <mxGeometry x="830" y="590" width="120" height="60" as="geometry" />
        </mxCell>
        <mxCell id="mqlpiFvzertqPi0XspZL-71" value="" style="ellipse;html=1;shape=endState;fillColor=#000000;strokeColor=#ff0000;" parent="1" vertex="1">
          <mxGeometry x="870" y="1178" width="40" height="40" as="geometry" />
        </mxCell>
        <mxCell id="mqlpiFvzertqPi0XspZL-72" value="" style="ellipse;html=1;shape=startState;fillColor=#000000;strokeColor=#ff0000;" parent="1" vertex="1">
          <mxGeometry x="870" y="680" width="40" height="40" as="geometry" />
        </mxCell>
        <mxCell id="mqlpiFvzertqPi0XspZL-73" value="" style="edgeStyle=orthogonalEdgeStyle;html=1;verticalAlign=bottom;endArrow=open;endSize=8;strokeColor=#ff0000;rounded=0;entryX=0.5;entryY=0;entryDx=0;entryDy=0;" parent="1" source="mqlpiFvzertqPi0XspZL-72" target="mqlpiFvzertqPi0XspZL-74" edge="1">
          <mxGeometry relative="1" as="geometry">
            <mxPoint x="885" y="710" as="targetPoint" />
            <Array as="points">
              <mxPoint x="890" y="680" />
              <mxPoint x="890" y="680" />
            </Array>
          </mxGeometry>
        </mxCell>
        <mxCell id="mqlpiFvzertqPi0XspZL-74" value="Chọn đăng nhập tài khoản" style="rounded=1;whiteSpace=wrap;html=1;arcSize=40;fontColor=#000000;fillColor=#ffffc0;strokeColor=#ff0000;" parent="1" vertex="1">
          <mxGeometry x="830" y="760" width="120" height="40" as="geometry" />
        </mxCell>
        <mxCell id="mqlpiFvzertqPi0XspZL-75" value="" style="edgeStyle=orthogonalEdgeStyle;html=1;verticalAlign=bottom;endArrow=open;endSize=8;strokeColor=#ff0000;rounded=0;exitX=0.5;exitY=1;exitDx=0;exitDy=0;entryX=0.5;entryY=0;entryDx=0;entryDy=0;" parent="1" source="mqlpiFvzertqPi0XspZL-74" target="mqlpiFvzertqPi0XspZL-76" edge="1">
          <mxGeometry relative="1" as="geometry">
            <mxPoint x="890" y="840" as="targetPoint" />
            <mxPoint x="870" y="850" as="sourcePoint" />
          </mxGeometry>
        </mxCell>
        <mxCell id="mqlpiFvzertqPi0XspZL-76" value="Nhập thông tin" style="rounded=1;whiteSpace=wrap;html=1;arcSize=40;fontColor=#000000;fillColor=#ffffc0;strokeColor=#ff0000;" parent="1" vertex="1">
          <mxGeometry x="830" y="840" width="120" height="40" as="geometry" />
        </mxCell>
        <mxCell id="mqlpiFvzertqPi0XspZL-77" value="" style="edgeStyle=orthogonalEdgeStyle;html=1;verticalAlign=bottom;endArrow=open;endSize=8;strokeColor=#ff0000;rounded=0;exitX=0.5;exitY=1;exitDx=0;exitDy=0;entryX=0.5;entryY=0;entryDx=0;entryDy=0;" parent="1" source="mqlpiFvzertqPi0XspZL-76" target="mqlpiFvzertqPi0XspZL-78" edge="1">
          <mxGeometry relative="1" as="geometry">
            <mxPoint x="889.5" y="950" as="targetPoint" />
            <mxPoint x="889.5" y="900" as="sourcePoint" />
          </mxGeometry>
        </mxCell>
        <mxCell id="mqlpiFvzertqPi0XspZL-78" value="Chọn đăng nhập" style="rounded=1;whiteSpace=wrap;html=1;arcSize=40;fontColor=#000000;fillColor=#ffffc0;strokeColor=#ff0000;" parent="1" vertex="1">
          <mxGeometry x="830" y="920" width="120" height="40" as="geometry" />
        </mxCell>
        <mxCell id="mqlpiFvzertqPi0XspZL-79" value="Thông báo đăng nhập không thành công" style="rounded=1;whiteSpace=wrap;html=1;arcSize=40;fontColor=#000000;fillColor=#ffffc0;strokeColor=#ff0000;" parent="1" vertex="1">
          <mxGeometry x="1015" y="920" width="120" height="40" as="geometry" />
        </mxCell>
        <mxCell id="mqlpiFvzertqPi0XspZL-80" value="Kiểm tra thông tin&amp;nbsp;&lt;div&gt;có hợp lệ không&lt;/div&gt;" style="rhombus;whiteSpace=wrap;html=1;fontColor=#000000;fillColor=#ffffc0;strokeColor=#ff0000;" parent="1" vertex="1">
          <mxGeometry x="790" y="1000" width="200" height="60" as="geometry" />
        </mxCell>
        <mxCell id="mqlpiFvzertqPi0XspZL-81" value="thông tin không hợp lệ" style="edgeStyle=orthogonalEdgeStyle;html=1;align=left;verticalAlign=bottom;endArrow=open;endSize=8;strokeColor=#ff0000;rounded=0;entryX=0.5;entryY=1;entryDx=0;entryDy=0;" parent="1" source="mqlpiFvzertqPi0XspZL-80" target="mqlpiFvzertqPi0XspZL-79" edge="1">
          <mxGeometry x="-0.4595" y="30" relative="1" as="geometry">
            <mxPoint x="1030" y="1030" as="targetPoint" />
            <mxPoint as="offset" />
          </mxGeometry>
        </mxCell>
        <mxCell id="mqlpiFvzertqPi0XspZL-82" value="thông tin hợp lệ" style="edgeStyle=orthogonalEdgeStyle;html=1;align=left;verticalAlign=top;endArrow=open;endSize=8;strokeColor=#ff0000;rounded=0;entryX=0.5;entryY=0;entryDx=0;entryDy=0;" parent="1" source="mqlpiFvzertqPi0XspZL-80" target="mqlpiFvzertqPi0XspZL-88" edge="1">
          <mxGeometry x="-0.6" y="-30" relative="1" as="geometry">
            <mxPoint x="890" y="1110" as="targetPoint" />
            <mxPoint as="offset" />
          </mxGeometry>
        </mxCell>
        <mxCell id="mqlpiFvzertqPi0XspZL-83" value="" style="edgeStyle=orthogonalEdgeStyle;html=1;align=left;verticalAlign=bottom;endArrow=open;endSize=8;strokeColor=#ff0000;rounded=0;exitX=0.5;exitY=0;exitDx=0;exitDy=0;entryX=1;entryY=0.5;entryDx=0;entryDy=0;" parent="1" source="mqlpiFvzertqPi0XspZL-79" target="mqlpiFvzertqPi0XspZL-76" edge="1">
          <mxGeometry x="-1" relative="1" as="geometry">
            <mxPoint x="990" y="850" as="targetPoint" />
            <mxPoint x="1090" y="900" as="sourcePoint" />
            <Array as="points">
              <mxPoint x="1070" y="920" />
              <mxPoint x="1070" y="860" />
            </Array>
          </mxGeometry>
        </mxCell>
        <mxCell id="mqlpiFvzertqPi0XspZL-85" value="" style="edgeStyle=orthogonalEdgeStyle;html=1;verticalAlign=bottom;endArrow=open;endSize=8;strokeColor=#ff0000;rounded=0;exitX=0.5;exitY=1;exitDx=0;exitDy=0;entryX=0.5;entryY=0;entryDx=0;entryDy=0;" parent="1" source="mqlpiFvzertqPi0XspZL-78" target="mqlpiFvzertqPi0XspZL-80" edge="1">
          <mxGeometry relative="1" as="geometry">
            <mxPoint x="889.5" y="1010" as="targetPoint" />
            <mxPoint x="889.5" y="970" as="sourcePoint" />
          </mxGeometry>
        </mxCell>
        <mxCell id="mqlpiFvzertqPi0XspZL-86" value="" style="edgeStyle=orthogonalEdgeStyle;html=1;verticalAlign=bottom;endArrow=open;endSize=8;strokeColor=#ff0000;rounded=0;entryX=0.5;entryY=0;entryDx=0;entryDy=0;exitX=0.5;exitY=1;exitDx=0;exitDy=0;" parent="1" source="mqlpiFvzertqPi0XspZL-88" target="mqlpiFvzertqPi0XspZL-71" edge="1">
          <mxGeometry relative="1" as="geometry">
            <mxPoint x="889.5" y="1245" as="targetPoint" />
            <mxPoint x="890" y="1160" as="sourcePoint" />
          </mxGeometry>
        </mxCell>
        <mxCell id="mqlpiFvzertqPi0XspZL-88" value="Hiển thị giao diện Home" style="rounded=1;whiteSpace=wrap;html=1;arcSize=40;fontColor=#000000;fillColor=#ffffc0;strokeColor=#ff0000;" parent="1" vertex="1">
          <mxGeometry x="830" y="1110" width="120" height="40" as="geometry" />
        </mxCell>
        <mxCell id="mqlpiFvzertqPi0XspZL-90" value="Hiển thị giao diện Home" style="rounded=1;whiteSpace=wrap;html=1;arcSize=40;fontColor=#000000;fillColor=#ffffc0;strokeColor=#ff0000;" parent="1" vertex="1">
          <mxGeometry x="240" y="1210" width="120" height="40" as="geometry" />
        </mxCell>
        <mxCell id="mqlpiFvzertqPi0XspZL-92" value="" style="edgeStyle=orthogonalEdgeStyle;html=1;verticalAlign=bottom;endArrow=open;endSize=8;strokeColor=#ff0000;rounded=0;exitX=0.5;exitY=1;exitDx=0;exitDy=0;entryX=0.5;entryY=0;entryDx=0;entryDy=0;" parent="1" source="mqlpiFvzertqPi0XspZL-90" target="mqlpiFvzertqPi0XspZL-43" edge="1">
          <mxGeometry relative="1" as="geometry">
            <mxPoint x="300" y="1300" as="targetPoint" />
            <mxPoint x="300" y="1250" as="sourcePoint" />
          </mxGeometry>
        </mxCell>
        <mxCell id="mqlpiFvzertqPi0XspZL-94" value="&lt;p style=&quot;text-align:justify;line-height:150%;tab-stops:148.55pt&quot; class=&quot;MsoNormal&quot;&gt;&lt;span style=&quot;font-size: 13pt; line-height: 150%; font-family: &amp;quot;Times New Roman&amp;quot;, serif;&quot;&gt;Usecase khách hàng và khách vãng lai đăng kí tài khoản&lt;/span&gt;&lt;/p&gt;" style="whiteSpace=wrap;html=1;" parent="1" vertex="1">
          <mxGeometry y="-80" width="440" height="80" as="geometry" />
        </mxCell>
      </root>
    </mxGraphModel>
  </diagram>
</mxfile>
